<svg id="mastercard" xmlns="http://www.w3.org/2000/svg" width="51.062" height="30.604" viewBox="0 0 51.062 30.604">
  <path id="Path_663" data-name="Path 663" d="M76.982,37.684a15.3,15.3,0,1,0,0-30.6,15.535,15.535,0,0,0-10.045,3.655A15.526,15.526,0,0,0,41.406,22.383,15.526,15.526,0,0,0,66.937,34.029,15.535,15.535,0,0,0,76.982,37.684Z" transform="translate(-41.406 -7.081)" fill="#ed0006" fill-rule="evenodd"/>
  <path id="Path_664" data-name="Path 664" d="M92.468,34.029a15.185,15.185,0,0,0,0-23.293A15.526,15.526,0,0,1,118,22.383,15.526,15.526,0,0,1,92.468,34.029Z" transform="translate(-66.937 -7.081)" fill="#f9a000" fill-rule="evenodd"/>
  <path id="Path_665" data-name="Path 665" d="M87.027,37.685a15.185,15.185,0,0,0,0-23.293,15.185,15.185,0,0,0,0,23.293Z" transform="translate(-61.496 -10.737)" fill="#ff5e00" fill-rule="evenodd"/>
</svg>
