<?xml version="1.0" encoding="UTF-8"?>
<svg xmlns="http://www.w3.org/2000/svg" version="1.1" viewBox="0 0 30 28.4">
  <defs>
    <style>
      .cls-1 {
        fill: #fff;
      }

      .cls-2 {
        fill: #3d8d86;
        fill-rule: evenodd;
      }

      .cls-3 {
        fill: none;
        stroke: #3d8d86;
        stroke-linecap: round;
        stroke-linejoin: round;
        stroke-width: 2.5px;
      }
    </style>
  </defs>
  <!-- Generator: Adobe Illustrator 28.6.0, SVG Export Plug-In . SVG Version: 1.2.0 Build 709)  -->
  <g>
    <g id="Layer_1">
      <g id="Layer_1-2" data-name="Layer_1">
        <g id="Frame_4">
          <path id="Path_680" class="cls-3" d="M15,5c-2.2,0-4,1.8-4,4s1.8,4,4,4,4-1.8,4-4-1.8-4-4-4Z"/>
          <path id="Path_681" class="cls-2" d="M9,18h19c1.1,0,2-.9,2-2V2c0-1.1-.9-2-2-2H2C.9,0,0,.9,0,2v14c0,1.1.9,2,2,2h7ZM20.6,2h-11.3L1.9,8.5v1.1l7.4,6.5h11.2l7.4-6.5v-1.1l-7.4-6.5h.1ZM28,5.8v-3.8h-4.3l4.3,3.8ZM28,12.2l-4.3,3.8h4.3v-3.8ZM2,5.8v-3.8h4.3l-4.3,3.8ZM2,16h4.3l-4.3-3.8v3.8Z"/>
          <path id="Path_682" class="cls-1" d="M0,24.5c0-.7.1-1.4.5-2,.3-.6.8-1.1,1.3-1.4.6-.3,1.3-.5,2-.5s1.7.2,2.4.8c.7.5,1.1,1.2,1.2,2.1h-2.3c-.2-.6-.8-.9-1.4-.9s-.9.2-1.2.5c-.3.4-.5.9-.4,1.4,0,.5,0,1,.4,1.4.3.3.7.5,1.2.5s1.2-.3,1.4-.9h2.3c-.2.8-.6,1.5-1.2,2.1-.7.5-1.5.8-2.4.8s-1.4-.2-2-.5c-.6-.3-1-.8-1.3-1.4-.3-.6-.5-1.3-.5-2ZM13.2,27h-2.7l-.4,1.2h-2.2l2.8-7.6h2.4l2.8,7.6h-2.2l-.4-1.2h-.1ZM12.7,25.4l-.8-2.5-.8,2.5h1.6ZM19.4,28.4c-.8,0-1.5-.2-2.2-.6-.6-.4-.9-1.1-.9-1.8h2.2c0,.2,0,.4.2.6.3.2.7.2,1,0,.1,0,.2-.2.2-.4s-.1-.4-.3-.5c-.3-.2-.7-.3-1-.4-.4-.1-.8-.3-1.2-.5-.3-.2-.6-.4-.8-.7-.2-.3-.4-.8-.3-1.2,0-.4.1-.9.4-1.2.3-.4.6-.6,1-.8.5-.2,1-.3,1.5-.3.8,0,1.5.2,2.1.6.5.4.8,1.1.8,1.7h-2.3c0-.2,0-.4-.2-.5-.1-.1-.3-.2-.5-.2s-.3,0-.4.1c-.2.2-.2.6,0,.8.1.1.3.2.4.3.2,0,.4.2.7.3.4.1.8.3,1.2.5.3.2.6.4.8.7.2.3.4.7.3,1.1,0,.4-.1.9-.3,1.2-.2.4-.6.7-1,.9-.5.2-1,.3-1.5.3h0ZM30,20.7v7.6h-2.1v-3h-2.6v3h-2.1v-7.6h2.1v2.9h2.6v-2.9h2.1Z"/>
        </g>
      </g>
    </g>
  </g>
</svg>