<?xml version="1.0" encoding="UTF-8"?>
<svg xmlns="http://www.w3.org/2000/svg" version="1.1" viewBox="0 0 74.4 24.4">
  <defs>
    <style>
      .cls-1 {
        fill: #1a3acd;
        fill-rule: evenodd;
      }
    </style>
  </defs>
  <!-- Generator: Adobe Illustrator 28.6.0, SVG Export Plug-In . SVG Version: 1.2.0 Build 709)  -->
  <g>
    <g id="Layer_1">
      <path id="Visa" class="cls-1" d="M18.6,24.3h-6.4L7.3,5.3c-.2-.8-.7-1.6-1.4-2C4,2.3,2.1,1.6,0,1.3v-.7h10.4c1.4,0,2.5,1,2.7,2.4l2.5,13.7L22,.5h6.3l-9.7,23.7ZM31.8,24.3h-6.1L30.8.5h6.1l-5,23.7ZM44.7,7.1c.2-1.2,1.3-2.1,2.5-2,2-.2,4.1.2,5.9,1.1l1.1-5.1C52.4.4,50.5,0,48.6,0,42.7,0,38.4,3.3,38.4,7.8s3,5.3,5.2,6.4c2.3,1.1,3.2,1.8,3,2.9,0,1.6-1.8,2.4-3.6,2.4-2.2,0-4.3-.5-6.3-1.5l-1.1,5.1c2.1.9,4.3,1.3,6.6,1.3,6.6.2,10.7-3.1,10.7-8,0-6.2-8.4-6.6-8.4-9.3ZM74.4,24.3L69.6.5h-5.2c-1.1,0-2.1.8-2.5,1.8l-8.9,21.9h6.3l1.2-3.5h7.7l.7,3.5h5.5ZM65.3,6.9l1.8,8.9h-5l3.2-8.9Z"/>
    </g>
  </g>
</svg>