<?xml version="1.0" encoding="UTF-8"?>
<svg xmlns="http://www.w3.org/2000/svg" version="1.1" xmlns:xlink="http://www.w3.org/1999/xlink" viewBox="0 0 91.8 30.6">
  <defs>
    <style>
      .cls-1 {
        fill: #259bd6;
      }

      .cls-2 {
        fill: none;
      }

      .cls-3 {
        fill: #84b740;
      }

      .cls-4 {
        clip-path: url(#clippath);
      }
    </style>
    <clipPath id="clippath">
      <rect class="cls-2" width="91.8" height="30.6"/>
    </clipPath>
  </defs>
  <!-- Generator: Adobe Illustrator 28.6.0, SVG Export Plug-In . SVG Version: 1.2.0 Build 709)  -->
  <g>
    <g id="Layer_1">
      <g id="Layer_1-2" data-name="Layer_1">
        <g class="cls-4">
          <g id="Mada_Logo">
            <path id="Path_669" class="cls-3" d="M38.8,17.6H0v12.9h38.8v-12.9Z"/>
            <path id="Path_670" class="cls-1" d="M38.8,0H0v12.9h38.8V0Z"/>
            <path id="Path_671" d="M77.6,28h-.2c-.4.1-.8.2-1.3.2-1,0-2.2-.5-2.2-3s.2-2.9,2.1-2.9h0c.5,0,.9.1,1.4.3h.2v5.4ZM78,15.8h-.3v4.6h-.3c-.6-.3-1.1-.4-1.7-.4-3.8,0-4.6,2.9-4.6,5.3s1.8,5.2,5.1,5.2,2.3-.1,3.4-.5c.8-.1,1.4-.8,1.3-1.6v-13c-.9.2-1.8.3-2.7.5h-.2Z"/>
            <path id="Path_672" d="M88.9,28h-.2l-.6.2c-.5.1-.9.2-1.4.2-.9,0-1.4-.4-1.4-1.2s.2-1.3,1.7-1.3h1.9s0,2.1,0,2.1ZM87.6,19.9c-1.3,0-2.6.2-3.8.7l-1,.3.3,2.2.9-.3c1-.3,2.1-.5,3.1-.5s1.7,0,1.7,1.4v.6h-1.8c-3.2,0-4.7,1-4.7,3.2s1.4,3,3.7,3,1.7-.1,2.6-.3h.3c.9.2,1.8.4,2.7.5v-7.2c0-2.3-1.4-3.5-4.2-3.5h.2Z"/>
            <path id="Path_673" d="M66.5,28h-.2l-.6.2c-.5.1-.9.2-1.4.2-.9,0-1.4-.4-1.4-1.2s.2-1.3,1.7-1.3h1.9s0,2.1,0,2.1ZM65.2,19.9c-1.3,0-2.6.2-3.8.7l-1,.3.3,2.2.9-.3c1-.3,2.1-.5,3.1-.5s1.7,0,1.7,1.4v.6h-1.8c-3.2,0-4.7,1-4.7,3.2s1.4,3,3.7,3,1.7-.1,2.6-.3h.3c.9.2,1.8.4,2.7.6v-7.2c0-2.4-1.4-3.5-4.2-3.5l.2-.2Z"/>
            <path id="Path_674" d="M54.3,19.9c-1.1,0-2.1.2-3.1.7h0c-.8-.5-1.8-.8-2.8-.7-1.1,0-2.2.2-3.3.5-1,.3-1.4.8-1.4,1.7v8.2h3.1v-7.6h.2c.4-.2.9-.3,1.3-.3.7,0,1.3.4,1.3,1.1v6.8h3v-7.5h0c.5-.2,1-.3,1.5-.3s1.3.4,1.3,1.1v6.8h3v-6.8c0-2.4-1.3-3.6-4-3.6h0Z"/>
            <path id="Path_675" d="M86.6,8.4c-.6,0-1.2,0-1.8-.2h-.2V3h.5c.5,0,1-.2,1.6-.2h0c1.9,0,2.1,1.7,2.1,2.9,0,2.4-1.2,3-2.2,3v-.3ZM86.6,0h0c-1.8,0-3.6.5-4.2,1.4-.4.5-.6,1.1-.5,1.7v5.4h-5.7v-3.2h0c0-3.4-2.1-5.2-4.9-5.2h-2.8c0,.8-.2,1.4-.3,2.2h2.8c1.5,0,2.2,1.2,2.2,3.2v3.2h-.2c-.2-.2-.4-.2-.7-.2h-4.8c0,.6-.2,1.4-.3,2.2h14.8c.5-.1,1.1-.2,1.6-.3,1,.4,2,.6,3.1.6,3.2,0,5.3-2.2,5.3-5.5S90,.1,86.8,0h-.2Z"/>
            <path id="Path_676" d="M60.6,12h0c3.2,0,4.7-1.1,4.7-3.7s-1.5-3.4-3.3-3.4h-3.3c-.7,0-1.3-.4-1.4-1.1v-.2c0-.6.2-1.3,1.7-1.3h6.5c0-.8.2-1.4.3-2.2h-6.7c-3.1,0-4.7,1.3-4.7,3.5s1.4,3.3,3.7,3.3h3c.8,0,1.4.6,1.4,1.4h0c0,.8-.6,1.5-1.4,1.5h-12c-1.5,0-2.5-.8-2.5-2.8v-1.3c0-2,.8-3.3,2.5-3.3h2.8c0-.9.2-1.4.3-2.2h-3.8c-2.9,0-4.9,1.9-4.9,5.3v1.5c0,3.4,2.1,5,4.9,5h12.1Z"/>
          </g>
        </g>
      </g>
    </g>
  </g>
</svg>