<?xml version="1.0" encoding="UTF-8"?>
<svg id="Layer_1" xmlns="http://www.w3.org/2000/svg" version="1.1" viewBox="0 0 841.89 595.28">
  <!-- Generator: Adobe Illustrator 29.5.0, SVG Export Plug-In . SVG Version: 2.1.0 Build 137)  -->
  <defs>
    <style>
      .st0, .st1 {
        fill: #fff;
      }

      .st1 {
        display: none;
      }

      .st2 {
        fill: #d19e2c;
      }

      .st3 {
        fill: #005e4b;
      }
    </style>
  </defs>
  <rect class="st1" width="841.89" height="595.28"/>
  <g>
    <path class="st1" d="M645.59,411.7V74.29c0-26.63-21.67-48.29-48.3-48.29h-333.85c-26.63,0-48.3,21.67-48.3,48.29v377.11h0s0,65.29,0,65.29c0,26.64,21.66,48.31,48.29,48.31h333.86c26.64,0,48.31-21.67,48.31-48.31v-104.92s0-.05,0-.07"/>
    <path class="st3" d="M262.16,382.24h336.39c6.76,0,12.96,2.41,17.77,6.4V75.34c0-10.49-8.54-18.99-19.07-18.99h-333.79c-10.53,0-19.07,8.5-19.07,18.99v313.3c4.81-3.99,11.01-6.4,17.77-6.4"/>
    <path class="st0" d="M564.12,96.16c0-3.11-2.56-5.55-5.82-5.55s-5.82,2.44-5.82,5.55,2.5,5.55,5.82,5.55,5.82-2.38,5.82-5.55M539.21,142.26h39.21v-13.06c0-3.53-.68-5.94-2.22-7.82-1.69-2.06-4.41-3.11-8.1-3.11h-28.89v23.99ZM463.69,169.1c-1.88,0-3.72-.25-5.65-.78l-1.08-.29,2.32-8.46,1.08.28c1.51.39,2.06.45,3.09.45,3.85,0,5.13-1.29,5.13-8.96v-47.03h8.84v37.96h52.95v-37.96h8.84v5.16h28.89c6.75,0,11.19,1.78,14.85,5.96,2.78,3.13,4.32,8.02,4.32,13.77v21.86h-110.82l.03.47c.33,6.67-.91,11.51-3.67,14.39-3.04,3.17-7.14,3.17-9.11,3.17h0ZM449.22,162.81c0-3.07-2.52-5.47-5.74-5.47s-5.65,2.4-5.65,5.47,2.43,5.38,5.65,5.38,5.74-2.26,5.74-5.38M433.24,162.81c0-3.07-2.48-5.47-5.65-5.47s-5.66,2.4-5.66,5.47,2.43,5.38,5.66,5.38,5.65-2.31,5.65-5.38M383.52,162.65c0-3.06-2.56-5.47-5.82-5.47s-5.82,2.4-5.82,5.47,2.5,5.55,5.82,5.55,5.82-2.39,5.82-5.55M298.62,88.7c0-3.02-2.48-5.39-5.65-5.39s-5.65,2.36-5.65,5.39,2.43,5.46,5.65,5.46,5.65-2.35,5.65-5.46M314.59,88.7c0-3.02-2.52-5.39-5.74-5.39s-5.65,2.36-5.65,5.39,2.43,5.46,5.65,5.46,5.74-2.35,5.74-5.46M299.22,113.11c-8.05,0-16.74,5.59-16.74,14.62,0,10.04,8.41,14.54,16.74,14.54h5.38v-29.16h-5.38ZM300.41,151.06c-19.76,0-26.77-12.57-26.77-23.34,0-13.79,11.64-23.42,28.3-23.42h2.66v-4.1h8.84v42.05h59.84v-37.96h8.84v37.96h55.78v-37.96h8.66v46.76h-146.16Z"/>
    <path class="st0" d="M587.26,180.71h-8.84v68.73h8.84v-68.73ZM304.42,211.48v29.16h-5.38c-8.33,0-16.74-4.5-16.74-14.54,0-9.03,8.69-14.62,16.74-14.62h5.38ZM510.73,211.48v29.16h-12.99l-.1-.06c-5.79-3.38-9.11-8.69-9.11-14.56,0-9.44,8.29-14.53,16.08-14.53h6.12ZM388.59,232c0,9.13-7.02,16.01-16.34,16.01-8.83,0-15.75-7.04-15.75-16.01s6.92-16.18,15.75-16.18c9.47,0,16.34,6.8,16.34,16.18M390.31,249.57l.13-.13h171.37v-68.73h-8.84v59.93h-33.4v-37.96h-12.24c-16.79,0-27.64,9.16-27.64,23.34,0,5.34,1.7,10.01,5.04,13.88l.64.74h-42.05v-37.96h-8.84v37.96h-38.55l.2-.59c.86-2.5,1.29-5.18,1.29-7.96,0-14.29-10.82-25.06-25.17-25.06s-24.6,11.01-24.6,25.06c0,2.68.43,5.37,1.27,7.97l.19.59h-35.86v-42.06h-8.84v4.1h-2.66c-16.66,0-28.3,9.63-28.3,23.42,0,11.28,7.44,23.34,28.3,23.34h52.8l.13.13c4.65,4.73,10.89,7.33,17.56,7.33s13.45-2.67,18.06-7.33M517.27,190.27c0-3.02-2.52-5.38-5.74-5.38s-5.65,2.36-5.65,5.38,2.43,5.46,5.65,5.46,5.74-2.35,5.74-5.46M501.3,190.27c0-3.02-2.49-5.38-5.66-5.38s-5.65,2.36-5.65,5.38,2.43,5.46,5.65,5.46,5.66-2.35,5.66-5.46M451.97,261.19c0-3.07-2.52-5.47-5.74-5.47s-5.65,2.4-5.65,5.47,2.43,5.38,5.65,5.38,5.74-2.26,5.74-5.38M435.99,261.19c0-3.07-2.48-5.47-5.65-5.47s-5.65,2.4-5.65,5.47,2.43,5.38,5.65,5.38,5.65-2.31,5.65-5.38M298.44,187.08c0-3.02-2.48-5.39-5.65-5.39s-5.65,2.37-5.65,5.39,2.43,5.46,5.65,5.46,5.65-2.35,5.65-5.46M308.68,192.54c-3.23,0-5.65-2.35-5.65-5.46s2.48-5.39,5.65-5.39,5.74,2.37,5.74,5.39-2.47,5.46-5.74,5.46"/>
    <path class="st0" d="M587.26,279.08h-8.84v68.73h8.84v-68.73ZM419.86,315.02h27.95c3.68,0,6.41,1.05,8.1,3.11,1.53,1.87,2.22,4.28,2.22,7.82v13.06h-38.26v-23.99ZM524.08,330.37c0,9.13-7.02,16.01-16.33,16.01s-15.75-7.03-15.75-16.01,6.92-16.17,15.75-16.17c9.47,0,16.33,6.8,16.33,16.17M525.8,347.94l.13-.13h35.88v-68.73h-8.84v59.93h-21.55l.2-.59c.86-2.5,1.29-5.18,1.29-7.96,0-14.29-10.82-25.06-25.17-25.06s-24.59,11.01-24.59,25.06c0,2.69.43,5.37,1.27,7.97l.19.58h-17.64v-13.06c0-5.76-1.53-10.65-4.31-13.77-3.66-4.18-8.1-5.96-14.85-5.96h-27.95v-5.17h-8.84v37.96h-21.28v-59.93h-8.84v68.73h109.15l.13.13c4.65,4.73,10.89,7.33,17.56,7.33s13.45-2.67,18.06-7.33M443.83,292.91c0-3.11-2.56-5.55-5.82-5.55s-5.82,2.44-5.82,5.55,2.5,5.55,5.82,5.55,5.82-2.39,5.82-5.55M357.22,288.56c0-3.11-2.56-5.55-5.82-5.55s-5.82,2.44-5.82,5.55,2.5,5.55,5.82,5.55,5.82-2.39,5.82-5.55M304.6,309.85v29.15h-5.38c-8.33,0-16.74-4.49-16.74-14.53,0-9.03,8.69-14.62,16.74-14.62h5.38ZM358.67,309.85v29.15h-12.99l-.1-.06c-5.79-3.38-9.12-8.69-9.12-14.56,0-7.05,5.64-14.53,16.09-14.53h6.12ZM367.52,347.81v-46.76h-12.24c-16.79,0-27.65,9.16-27.65,23.34,0,5.34,1.7,10.01,5.04,13.88l.64.74h-19.86v-42.05h-8.84v4.1h-2.66c-16.66,0-28.3,9.63-28.3,23.42,0,11.28,7.43,23.34,28.3,23.34h65.57ZM298.62,285.45c0-3.02-2.48-5.38-5.65-5.38s-5.65,2.36-5.65,5.38,2.43,5.47,5.65,5.47,5.65-2.35,5.65-5.47M308.86,290.91c-3.23,0-5.66-2.35-5.66-5.47s2.49-5.38,5.66-5.38,5.74,2.36,5.74,5.38-2.47,5.47-5.74,5.47"/>
    <path class="st2" d="M597.29,534.65h-333.87c-10.51,0-19.03-8.52-19.03-19.03v-104.35c0-10.51,8.52-19.03,19.03-19.03h333.87c10.51,0,19.03,8.52,19.03,19.03v104.35c0,10.51-8.52,19.03-19.03,19.03"/>
    <path class="st0" d="M326.06,489.91l22.5-75.89h31.55c-10.47,31.45-32.92,98.85-33.18,98.85h-41.75c-.25,0-22.71-67.4-33.18-98.85h31.55l22.5,75.89Z"/>
    <polygon class="st0" points="588.65 414.03 484.09 414.03 491.98 436.7 525.4 436.7 525.4 512.85 555.38 512.85 555.38 436.7 588.7 436.7 588.65 414.03"/>
    <path class="st3" d="M482.64,450.23l-3.19-6.96c-16.41,10.74-43.62,43.12-43.62,43.12l-9.98-11.26-3.62,12.21-.46,1.79c3.8,5.45,14.22,23.73,14.22,23.73,24.01-43.72,46.66-62.63,46.66-62.63"/>
    <path class="st0" d="M432.19,436.98l10.27,34.65c6.26-6.91,14.51-15.62,22.42-22.77-6.52-19.47-11.7-34.83-11.82-34.83h-41.75c-.25,0-22.71,67.4-33.18,98.85h31.55l22.5-75.89Z"/>
    <path class="st0" d="M450.28,498l4.41,14.87h31.55c-3.85-11.56-9.31-27.98-14.7-44.12-5.96,7.06-13.35,16.75-21.26,29.24"/>
  </g>
</svg>